<svg xmlns="http://www.w3.org/2000/svg" width="144" height="124.70765814495915" viewBox="0 0 144 124.70765814495915"><path d="M-144 -124.7077L-108 -187.0615 M-144 -124.7077L-108.0 -145.4923 M-144 -124.7077L-108.0 -103.923 M-144 -124.7077L-108 -62.3538 M-144 -124.7077L-72 -124.7077 M-144 0.0L-108 -62.3538 M-144 0.0L-108.0 -20.7846 M-144 0.0L-108.0 20.7846 M-144 0.0L-108 62.3538 M-144 0.0L-72 0.0 M-144 124.7077L-108 62.3538 M-144 124.7077L-108.0 103.923 M-144 124.7077L-108.0 145.4923 M-144 124.7077L-108 187.0615 M-144 124.7077L-72 124.7077 M-108 -187.0615L-108.0 -145.4923 M-108 -187.0615L-72 -124.7077 M-108.0 -145.4923L-72 -124.7077 M-108.0 -103.923L-108 -62.3538 M-108.0 -103.923L-72 -124.7077 M-108 -62.3538L-108.0 -20.7846 M-108 -62.3538L-72 -124.7077 M-108 -62.3538L-72.0 -83.1384 M-108 -62.3538L-72.0 -41.5692 M-108 -62.3538L-72 0.0 M-108 -62.3538L-36 -62.3538 M-108.0 -20.7846L-72 0.0 M-108.0 20.7846L-108 62.3538 M-108.0 20.7846L-72 0.0 M-108 62.3538L-108.0 103.923 M-108 62.3538L-72 0.0 M-108 62.3538L-72.0 41.5692 M-108 62.3538L-72.0 83.1384 M-108 62.3538L-72 124.7077 M-108 62.3538L-36 62.3538 M-108.0 103.923L-72 124.7077 M-108.0 145.4923L-108 187.0615 M-108.0 145.4923L-72 124.7077 M-108 187.0615L-72 124.7077 M-108 187.0615L-72.0 166.2769 M-108 187.0615L-72.0 207.8461 M-108 187.0615L-72 249.4153 M-108 187.0615L-36 187.0615 M-72 -124.7077L-72.0 -83.1384 M-72 -124.7077L-36 -187.0615 M-72 -124.7077L-36.0 -145.4923 M-72 -124.7077L-36.0 -103.923 M-72 -124.7077L-36 -62.3538 M-72 -124.7077L0 -124.7077 M-72.0 -83.1384L-36 -62.3538 M-72.0 -41.5692L-72 0.0 M-72.0 -41.5692L-36 -62.3538 M-72 0.0L-72.0 41.5692 M-72 0.0L-36 -62.3538 M-72 0.0L-36.0 -20.7846 M-72 0.0L-36.0 20.7846 M-72 0.0L-36 62.3538 M-72 0.0L0 0.0 M-72.0 41.5692L-36 62.3538 M-72.0 83.1384L-72 124.7077 M-72.0 83.1384L-36 62.3538 M-72 124.7077L-72.0 166.2769 M-72 124.7077L-36 62.3538 M-72 124.7077L-36.0 103.923 M-72 124.7077L-36.0 145.4923 M-72 124.7077L-36 187.0615 M-72 124.7077L0 124.7077 M-72.0 166.2769L-36 187.0615 M-72.0 207.8461L-72 249.4153 M-72.0 207.8461L-36 187.0615 M-72 249.4153L-36 187.0615 M-36 -187.0615L-36.0 -145.4923 M-36 -187.0615L0 -124.7077 M-36.0 -145.4923L0 -124.7077 M-36.0 -103.923L-36 -62.3538 M-36.0 -103.923L0 -124.7077 M-36 -62.3538L-36.0 -20.7846 M-36 -62.3538L0 -124.7077 M-36 -62.3538L0.0 -83.1384 M-36 -62.3538L0.0 -41.5692 M-36 -62.3538L0 0.0 M-36 -62.3538L36 -62.3538 M-36.0 -20.7846L0 0.0 M-36.0 20.7846L-36 62.3538 M-36.0 20.7846L0 0.0 M-36 62.3538L-36.0 103.923 M-36 62.3538L0 0.0 M-36 62.3538L0.0 41.5692 M-36 62.3538L0.0 83.1384 M-36 62.3538L0 124.7077 M-36 62.3538L36 62.3538 M-36.0 103.923L0 124.7077 M-36.0 145.4923L-36 187.0615 M-36.0 145.4923L0 124.7077 M-36 187.0615L0 124.7077 M-36 187.0615L0.0 166.2769 M-36 187.0615L0.0 207.8461 M-36 187.0615L0 249.4153 M-36 187.0615L36 187.0615 M0 -124.7077L0.0 -83.1384 M0 -124.7077L36 -187.0615 M0 -124.7077L36.0 -145.4923 M0 -124.7077L36.0 -103.923 M0 -124.7077L36 -62.3538 M0 -124.7077L72 -124.7077 M0.0 -83.1384L36 -62.3538 M0.0 -41.5692L0 0.0 M0.0 -41.5692L36 -62.3538 M0 0.0L0.0 41.5692 M0 0.0L36 -62.3538 M0 0.0L36.0 -20.7846 M0 0.0L36.0 20.7846 M0 0.0L36 62.3538 M0 0.0L72 0.0 M0.0 41.5692L36 62.3538 M0.0 83.1384L0 124.7077 M0.0 83.1384L36 62.3538 M0 124.7077L0.0 166.2769 M0 124.7077L36 62.3538 M0 124.7077L36.0 103.923 M0 124.7077L36.0 145.4923 M0 124.7077L36 187.0615 M0 124.7077L72 124.7077 M0.0 166.2769L36 187.0615 M0.0 207.8461L0 249.4153 M0.0 207.8461L36 187.0615 M0 249.4153L36 187.0615 M36 -187.0615L36.0 -145.4923 M36 -187.0615L72 -124.7077 M36.0 -145.4923L72 -124.7077 M36.0 -103.923L36 -62.3538 M36.0 -103.923L72 -124.7077 M36 -62.3538L36.0 -20.7846 M36 -62.3538L72 -124.7077 M36 -62.3538L72.0 -83.1384 M36 -62.3538L72.0 -41.5692 M36 -62.3538L72 0.0 M36 -62.3538L108 -62.3538 M36.0 -20.7846L72 0.0 M36.0 20.7846L36 62.3538 M36.0 20.7846L72 0.0 M36 62.3538L36.0 103.923 M36 62.3538L72 0.0 M36 62.3538L72.0 41.5692 M36 62.3538L72.0 83.1384 M36 62.3538L72 124.7077 M36 62.3538L108 62.3538 M36.0 103.923L72 124.7077 M36.0 145.4923L36 187.0615 M36.0 145.4923L72 124.7077 M36 187.0615L72 124.7077 M36 187.0615L72.0 166.2769 M36 187.0615L72.0 207.8461 M36 187.0615L72 249.4153 M36 187.0615L108 187.0615 M72 -124.7077L72.0 -83.1384 M72 -124.7077L108 -187.0615 M72 -124.7077L108.0 -145.4923 M72 -124.7077L108.0 -103.923 M72 -124.7077L108 -62.3538 M72 -124.7077L144 -124.7077 M72.0 -83.1384L108 -62.3538 M72.0 -41.5692L72 0.0 M72.0 -41.5692L108 -62.3538 M72 0.0L72.0 41.5692 M72 0.0L108 -62.3538 M72 0.0L108.0 -20.7846 M72 0.0L108.0 20.7846 M72 0.0L108 62.3538 M72 0.0L144 0.0 M72.0 41.5692L108 62.3538 M72.0 83.1384L72 124.7077 M72.0 83.1384L108 62.3538 M72 124.7077L72.0 166.2769 M72 124.7077L108 62.3538 M72 124.7077L108.0 103.923 M72 124.7077L108.0 145.4923 M72 124.7077L108 187.0615 M72 124.7077L144 124.7077 M72.0 166.2769L108 187.0615 M72.0 207.8461L72 249.4153 M72.0 207.8461L108 187.0615 M72 249.4153L108 187.0615 M108 -187.0615L108.0 -145.4923 M108 -187.0615L144 -124.7077 M108.0 -145.4923L144 -124.7077 M108.0 -103.923L108 -62.3538 M108.0 -103.923L144 -124.7077 M108 -62.3538L108.0 -20.7846 M108 -62.3538L144 -124.7077 M108 -62.3538L144.0 -83.1384 M108 -62.3538L144.0 -41.5692 M108 -62.3538L144 0.0 M108 -62.3538L180 -62.3538 M108.0 -20.7846L144 0.0 M108.0 20.7846L108 62.3538 M108.0 20.7846L144 0.0 M108 62.3538L108.0 103.923 M108 62.3538L144 0.0 M108 62.3538L144.0 41.5692 M108 62.3538L144.0 83.1384 M108 62.3538L144 124.7077 M108 62.3538L180 62.3538 M108.0 103.923L144 124.7077 M108.0 145.4923L108 187.0615 M108.0 145.4923L144 124.7077 M108 187.0615L144 124.7077 M108 187.0615L144.0 166.2769 M108 187.0615L144.0 207.8461 M108 187.0615L144 249.4153 M108 187.0615L180 187.0615 M144 -124.7077L144.0 -83.1384 M144 -124.7077L180 -187.0615 M144 -124.7077L180.0 -145.4923 M144 -124.7077L180.0 -103.923 M144 -124.7077L180 -62.3538 M144 -124.7077L216 -124.7077 M144.0 -83.1384L180 -62.3538 M144.0 -41.5692L144 0.0 M144.0 -41.5692L180 -62.3538 M144 0.0L144.0 41.5692 M144 0.0L180 -62.3538 M144 0.0L180.0 -20.7846 M144 0.0L180.0 20.7846 M144 0.0L180 62.3538 M144 0.0L216 0.0 M144.0 41.5692L180 62.3538 M144.0 83.1384L144 124.7077 M144.0 83.1384L180 62.3538 M144 124.7077L144.0 166.2769 M144 124.7077L180 62.3538 M144 124.7077L180.0 103.923 M144 124.7077L180.0 145.4923 M144 124.7077L180 187.0615 M144 124.7077L216 124.7077 M144.0 166.2769L180 187.0615 M144.0 207.8461L144 249.4153 M144.0 207.8461L180 187.0615 M144 249.4153L180 187.0615 M180 -187.0615L180.0 -145.4923 M180 -187.0615L216 -124.7077 M180.0 -145.4923L216 -124.7077 M180.0 -103.923L180 -62.3538 M180.0 -103.923L216 -124.7077 M180 -62.3538L180.0 -20.7846 M180 -62.3538L216 -124.7077 M180 -62.3538L216.0 -83.1384 M180 -62.3538L216.0 -41.5692 M180 -62.3538L216 0.0 M180 -62.3538L252 -62.3538 M180.0 -20.7846L216 0.0 M180.0 20.7846L180 62.3538 M180.0 20.7846L216 0.0 M180 62.3538L180.0 103.923 M180 62.3538L216 0.0 M180 62.3538L216.0 41.5692 M180 62.3538L216.0 83.1384 M180 62.3538L216 124.7077 M180 62.3538L252 62.3538 M180.0 103.923L216 124.7077 M180.0 145.4923L180 187.0615 M180.0 145.4923L216 124.7077 M180 187.0615L216 124.7077 M180 187.0615L216.0 166.2769 M180 187.0615L216.0 207.8461 M180 187.0615L216 249.4153 M180 187.0615L252 187.0615 M216 -124.7077L216.0 -83.1384 M216 -124.7077L252 -187.0615 M216 -124.7077L252.0 -145.4923 M216 -124.7077L252.0 -103.923 M216 -124.7077L252 -62.3538 M216 -124.7077L288 -124.7077 M216.0 -83.1384L252 -62.3538 M216.0 -41.5692L216 0.0 M216.0 -41.5692L252 -62.3538 M216 0.0L216.0 41.5692 M216 0.0L252 -62.3538 M216 0.0L252.0 -20.7846 M216 0.0L252.0 20.7846 M216 0.0L252 62.3538 M216 0.0L288 0.0 M216.0 41.5692L252 62.3538 M216.0 83.1384L216 124.7077 M216.0 83.1384L252 62.3538 M216 124.7077L216.0 166.2769 M216 124.7077L252 62.3538 M216 124.7077L252.0 103.923 M216 124.7077L252.0 145.4923 M216 124.7077L252 187.0615 M216 124.7077L288 124.7077 M216.0 166.2769L252 187.0615 M216.0 207.8461L216 249.4153 M216.0 207.8461L252 187.0615 M216 249.4153L252 187.0615 M252 -187.0615L252.0 -145.4923 M252 -187.0615L288 -124.7077 M252.0 -145.4923L288 -124.7077 M252.0 -103.923L252 -62.3538 M252.0 -103.923L288 -124.7077 M252 -62.3538L252.0 -20.7846 M252 -62.3538L288 -124.7077 M252 -62.3538L288.0 -83.1384 M252 -62.3538L288.0 -41.5692 M252 -62.3538L288 0.0 M252 -62.3538L324 -62.3538 M252.0 -20.7846L288 0.0 M252.0 20.7846L252 62.3538 M252.0 20.7846L288 0.0 M252 62.3538L252.0 103.923 M252 62.3538L288 0.0 M252 62.3538L288.0 41.5692 M252 62.3538L288.0 83.1384 M252 62.3538L288 124.7077 M252 62.3538L324 62.3538 M252.0 103.923L288 124.7077 M252.0 145.4923L252 187.0615 M252.0 145.4923L288 124.7077 M252 187.0615L288 124.7077 M252 187.0615L288.0 166.2769 M252 187.0615L288.0 207.8461 M252 187.0615L288 249.4153 M252 187.0615L324 187.0615 M288 -124.7077L288.0 -83.1384 M288 -124.7077L324 -187.0615 M288 -124.7077L324.0 -145.4923 M288 -124.7077L324.0 -103.923 M288 -124.7077L324 -62.3538 M288 -124.7077L360 -124.7077 M288.0 -83.1384L324 -62.3538 M288.0 -41.5692L288 0.0 M288.0 -41.5692L324 -62.3538 M288 0.0L288.0 41.5692 M288 0.0L324 -62.3538 M288 0.0L324.0 -20.7846 M288 0.0L324.0 20.7846 M288 0.0L324 62.3538 M288 0.0L360 0.0 M288.0 41.5692L324 62.3538 M288.0 83.1384L288 124.7077 M288.0 83.1384L324 62.3538 M288 124.7077L288.0 166.2769 M288 124.7077L324 62.3538 M288 124.7077L324.0 103.923 M288 124.7077L324.0 145.4923 M288 124.7077L324 187.0615 M288 124.7077L360 124.7077 M288.0 166.2769L324 187.0615 M288.0 207.8461L288 249.4153 M288.0 207.8461L324 187.0615 M288 249.4153L324 187.0615 M324 -187.0615L324.0 -145.4923 M324 -187.0615L360 -124.7077 M324.0 -145.4923L360 -124.7077 M324.0 -103.923L324 -62.3538 M324.0 -103.923L360 -124.7077 M324 -62.3538L324.0 -20.7846 M324 -62.3538L360 -124.7077 M324 -62.3538L360.0 -83.1384 M324 -62.3538L360.0 -41.5692 M324 -62.3538L360 0.0 M324 -62.3538L396 -62.3538 M324.0 -20.7846L360 0.0 M324.0 20.7846L324 62.3538 M324.0 20.7846L360 0.0 M324 62.3538L324.0 103.923 M324 62.3538L360 0.0 M324 62.3538L360.0 41.5692 M324 62.3538L360.0 83.1384 M324 62.3538L360 124.7077 M324 62.3538L396 62.3538 M324.0 103.923L360 124.7077 M324.0 145.4923L324 187.0615 M324.0 145.4923L360 124.7077 M324 187.0615L360 124.7077 M324 187.0615L360.0 166.2769 M324 187.0615L360.0 207.8461 M324 187.0615L360 249.4153 M324 187.0615L396 187.0615 M360 -124.7077L360.0 -83.1384 M360 -124.7077L396 -62.3538 M360.0 -83.1384L396 -62.3538 M360.0 -41.5692L360 0.0 M360.0 -41.5692L396 -62.3538 M360 0.0L360.0 41.5692 M360 0.0L396 -62.3538 M360 0.0L396 62.3538 M360.0 41.5692L396 62.3538 M360.0 83.1384L360 124.7077 M360.0 83.1384L396 62.3538 M360 124.7077L360.0 166.2769 M360 124.7077L396 62.3538 M360 124.7077L396 187.0615 M360.0 166.2769L396 187.0615 M360.0 207.8461L360 249.4153 M360.0 207.8461L396 187.0615 M360 249.4153L396 187.0615" fill="none" stroke="#cda647" stroke-width="3.4" stroke-opacity="0.9" stroke-linejoin="round"/></svg>
